<svg width="22" height="22" viewBox="0 0 22 22" fill="none" xmlns="http://www.w3.org/2000/svg">
<g clip-path="url(#clip0_542_2)">
<path fill-rule="evenodd" clip-rule="evenodd" d="M15.6667 9.66667C15.6667 12.244 13.5773 14.3333 11 14.3333C8.42267 14.3333 6.33333 12.244 6.33333 9.66667C6.33333 7.08934 8.42267 5 11 5C13.5773 5 15.6667 7.08934 15.6667 9.66667ZM7.41495 13.7643C5.36964 14.9862 4 17.2221 4 19.7778C4 20.0019 4.01054 20.2236 4.03114 20.4424H17.9689C17.9895 20.2236 18 20.0019 18 19.7778C18 17.2221 16.6304 14.9862 14.585 13.7643C13.6273 14.6029 12.373 15.1111 11 15.1111C9.62699 15.1111 8.37268 14.6029 7.41495 13.7643Z" fill="#16c15a"/>
<path fill-rule="evenodd" clip-rule="evenodd" d="M5 0C2.23858 0 0 2.23858 0 5V17C0 19.7614 2.23858 22 5 22H17C19.7614 22 22 19.7614 22 17V5C22 2.23858 19.7614 0 17 0H5ZM5 2C3.34315 2 2 3.34315 2 5V17C2 18.6569 3.34315 20 5 20H17C18.6569 20 20 18.6569 20 17V5C20 3.34315 18.6569 2 17 2H5Z" fill="#16c15a"/>
</g>
<defs>
<clipPath id="clip0_542_2">
<rect width="22" height="22" fill="white"/>
</clipPath>
</defs>
</svg>
